<?xml version="1.0" standalone="no"?>
<!DOCTYPE svg PUBLIC "-//W3C//DTD SVG 20010904//EN"
 "http://www.w3.org/TR/2001/REC-SVG-20010904/DTD/svg10.dtd">
<svg version="1.0" xmlns="http://www.w3.org/2000/svg"
 width="391.000000pt" height="391.000000pt" viewBox="0 0 391.000000 391.000000"
 preserveAspectRatio="xMidYMid meet">
<metadata>
Created by potrace 1.11, written by Peter Selinger 2001-2013
</metadata>
<g transform="translate(0.000000,391.000000) scale(0.100000,-0.100000)"
fill="#000000" stroke="none">
<path d="M3728 3004 c-5 -57 -43 -165 -60 -172 -4 -2 -8 -8 -8 -14 0 -18 -72
-102 -123 -143 -26 -22 -55 -46 -62 -52 -7 -7 -18 -13 -23 -13 -6 0 -12 -4
-14 -8 -5 -13 -158 -87 -236 -116 -66 -23 -228 -68 -292 -79 -14 -3 -56 -13
-95 -22 -38 -9 -78 -18 -88 -20 -28 -6 -190 -57 -207 -66 -8 -4 -49 -22 -90
-40 -81 -35 -185 -102 -238 -152 -54 -52 -111 -145 -133 -220 -19 -60 -21 -85
-16 -181 3 -61 9 -124 12 -141 3 -16 10 -54 16 -82 6 -29 11 -56 11 -60 4 -47
73 -191 122 -258 54 -73 192 -196 262 -233 20 -11 20 -8 -6 41 -59 115 -72
255 -31 336 29 56 100 132 160 171 42 26 161 75 161 65 0 -2 15 1 33 6 17 5
46 12 62 15 62 10 203 57 275 92 181 85 325 217 419 384 l33 57 -89 -41 c-170
-79 -445 -164 -593 -184 -25 -3 -47 -8 -50 -9 -22 -13 -300 -39 -300 -28 0 5
48 24 108 42 225 70 468 180 637 288 223 144 409 342 441 472 18 69 28 320 17
381 l-9 45 -6 -61z"/>
<path d="M165 3019 c-10 -15 -13 -217 -4 -264 4 -22 9 -56 12 -75 13 -97 49
-158 166 -282 199 -211 561 -414 934 -523 53 -16 97 -32 97 -37 0 -6 -27 -7
-62 -3 -35 3 -88 8 -118 11 -255 26 -577 118 -792 225 l-57 28 9 -25 c16 -40
94 -154 142 -205 35 -38 101 -94 173 -147 78 -57 323 -151 437 -166 67 -9 140
-33 193 -62 112 -63 209 -198 206 -287 -3 -108 -26 -196 -65 -249 -11 -15 -18
-30 -15 -32 10 -10 122 76 204 159 72 71 99 107 133 175 24 47 44 92 45 100 2
8 5 20 8 25 4 6 10 28 14 50 5 22 9 45 11 50 12 52 26 168 29 248 7 216 -116
391 -361 515 -66 33 -264 105 -264 95 0 -3 -6 -1 -12 5 -7 5 -98 29 -202 52
-104 23 -233 57 -287 75 -91 31 -277 117 -289 134 -3 4 -21 18 -40 31 -48 33
-121 108 -157 161 -33 48 -74 158 -76 202 -2 30 -3 32 -12 16z"/>
<path d="M2210 2989 c-126 -20 -326 -155 -419 -284 -18 -25 -30 -45 -26 -45 3
0 22 11 43 25 66 43 222 98 222 77 0 -4 -26 -20 -59 -36 -87 -41 -175 -102
-235 -161 -47 -48 -56 -63 -75 -133 -11 -43 -21 -83 -21 -90 0 -6 20 -25 44
-41 l44 -30 22 62 c27 75 75 150 124 196 46 45 56 34 18 -21 -35 -51 -65 -108
-57 -108 3 0 1 -9 -5 -21 -13 -24 -18 -46 -26 -116 -6 -46 -3 -54 18 -75 30
-28 99 -122 118 -161 l14 -27 30 57 c31 57 134 171 189 209 22 15 31 32 38 70
15 84 63 168 115 202 67 45 205 71 265 50 27 -9 54 -59 41 -74 -4 -3 0 -5 8
-2 8 2 19 24 24 50 8 39 5 53 -17 100 -13 31 -41 72 -60 93 -34 36 -39 57 -23
96 18 41 -172 134 -294 144 -8 0 -35 -2 -60 -6z"/>
</g>
</svg>
